<?xml version="1.0" encoding="UTF-8"?>
<svg id="_喇뒨쏛_2" data-name="喇뒨쏛 2" xmlns="http://www.w3.org/2000/svg" viewBox="0 0 119.84 119.84">
  <defs>
    <style>
      .cls-1 {
        fill: #f0f0f0;
      }

      .cls-2 {
        fill: #191919;
      }
    </style>
  </defs>
  <g id="_喇뒨쏛_1-2" data-name="喇뒨쏛 1">
    <circle class="cls-1" cx="59.92" cy="59.92" r="59.92"/>
    <g id="uuid-53d9b346-193f-473c-a7ad-26fe8b07c7f7" data-name=" 喇뒨쏛 1-2">
      <g>
        <path class="cls-2" d="M22.8,71.1c-3.46,0-5.18-1.63-5.18-4.9v-17.28c0-4.61,1.48-8.26,4.43-10.94,2.95-2.69,6.85-4.04,11.7-4.04s8.75,1.34,11.7,4.03c2.95,2.69,4.43,6.34,4.43,10.94v17.28c0,3.26-1.73,4.9-5.18,4.9s-5.18-1.63-5.18-4.9v-16.69c0-2.26-.5-3.97-1.51-5.15s-2.42-1.76-4.25-1.76-3.24.59-4.25,1.76c-1.01,1.18-1.51,2.89-1.51,5.15v16.7c0,3.26-1.73,4.9-5.18,4.9h-.02Z"/>
        <path class="cls-2" d="M68.66,39.49v41.84c0,5.52-1.19,9.99-3.56,13.39-2.38,3.41-6.06,5.14-11.05,5.19h-.8c-3.88-.1-6.71-.66-8.49-1.69-1.78-1.04-2.67-2.63-2.67-4.79,0-1.59.43-2.63,1.26-3.13.84-.51,2.01-.76,3.5-.76,1.29,0,2.4.11,3.31.32.91.22,2.04.38,3.38.47h.43c1.92,0,3.17-.73,3.75-2.19.57-1.47.86-3.26.86-5.37v-43.28c0-1.97.42-3.41,1.26-4.32.84-.91,2.05-1.37,3.64-1.37,1.87,0,3.2.54,3.99,1.62.8,1.08,1.19,2.44,1.19,4.07Z"/>
        <path class="cls-2" d="M80.33,70.52c-1.2,0-2.2-.48-2.99-1.44s-1.19-2.14-1.19-3.53c0-.91.22-1.73.65-2.45l11.09-17.35c.53-.82.96-1.39,1.3-1.73.33-.33.7-.58,1.08-.72h-10.08c-3.22,0-4.82-1.46-4.82-4.39s1.61-4.39,4.82-4.39h17.78c1.3,0,2.38.48,3.24,1.44s1.3,2.14,1.3,3.53c0,.91-.22,1.73-.65,2.45l-11.74,17.5c-.86,1.34-1.85,2.11-2.95,2.3h12.24c3.21,0,4.82,1.51,4.82,4.54,0,2.83-1.61,4.25-4.82,4.25h-19.08Z"/>
      </g>
    </g>
  </g>
</svg>