<?xml version="1.0" encoding="UTF-8"?>
<svg id="_喇뒨쏛_2" data-name="喇뒨쏛 2" xmlns="http://www.w3.org/2000/svg" viewBox="0 0 323.03 171.23">
  <defs>
    <linearGradient id="awGradient" x1="0" y1="171.23" x2="323.03" y2="0" gradientUnits="userSpaceOnUse">
      <stop offset="0%" stop-color="#4F46E5"/>
      <stop offset="50%" stop-color="#8B2FC9"/>
      <stop offset="100%" stop-color="#EC4899"/>
    </linearGradient>
    <style>
      .cls-1 {
        fill: url(#awGradient);
      }
    </style>
  </defs>
  <g id="_喇뒨쏛_1-2" data-name="喇뒨쏛 1">
    <g id="a-dot">
      <path class="cls-1" d="M30,170.73c-16.27,0-29.5-13.23-29.5-29.5s13.23-29.5,29.5-29.5,29.5,13.23,29.5,29.5-13.23,29.5-29.5,29.5Z"/>
    </g>
    <g id="a-line-w-start">
      <path class="cls-1" d="M133.8,170.73c-3.22,0-6.15-1.5-8.03-4.12l-63.23-88.19c-16.24-22.65-14.45-54.04,4.26-74.64,1.92-2.12,4.55-3.28,7.39-3.28,3.22,0,6.15,1.5,8.03,4.12l63.23,88.19c16.24,22.65,14.45,54.04-4.26,74.64-1.92,2.12-4.55,3.28-7.39,3.28Z"/>
    </g>
    <g id="w-tail">
      <path class="cls-1" d="M293.03,59.5c-16.27,0-29.5-13.23-29.5-29.5S276.77.5,293.03.5s29.5,13.23,29.5,29.5-13.23,29.5-29.5,29.5Z"/>
    </g>
    <g id="w-middle">
      <path class="cls-1" d="M248.83,170.73c-3.22,0-6.15-1.5-8.03-4.12l-63.23-88.19c-16.24-22.65-14.45-54.04,4.26-74.64,1.92-2.12,4.55-3.28,7.39-3.28,3.22,0,6.15,1.5,8.03,4.12l63.23,88.19c16.24,22.65,14.45,54.04-4.26,74.64-1.92,2.12-4.55,3.28-7.39,3.28Z"/>
    </g>
  </g>
</svg>
