<?xml version="1.0" encoding="UTF-8"?>
<svg id="_圖層_2" data-name="圖層 2" xmlns="http://www.w3.org/2000/svg" viewBox="0 0 213.93 256.15">
  <defs>
    <style>
      .cls-1 {
        fill: #c6c4e2;
      }

      .cls-2 {
        fill: #434c51;
      }

      .cls-3 {
        fill: #f2e479;
      }

      .cls-4 {
        fill: #b4b4d9;
      }

      .cls-5 {
        fill: #485c6f;
      }

      .cls-6 {
        fill: #f3e77f;
      }

      .cls-7 {
        fill: #484e52;
      }

      .cls-8 {
        fill: #f6c96b;
      }

      .cls-9 {
        fill: #ec6c7c;
      }

      .cls-10 {
        fill: #59748b;
      }

      .cls-11 {
        fill: #d7d5ea;
      }

      .cls-12 {
        fill: #f19ba5;
      }

      .cls-13 {
        fill: #788ca0;
      }

      .cls-14 {
        fill: #f19ca5;
      }

      .cls-15 {
        fill: #c5c5e2;
      }
    </style>
  </defs>
  <g id="_圖層_1-2" data-name="圖層 1">
    <g>
      <path class="cls-6" d="M4.9,76.3c-2.23.9-4.16-.92-4.6-2.21-.67-2,.07-4.36,2.38-5.28l18.67-7.35c2.1-.83,4.12.06,4.97,1.67.94,1.78.48,4.38-1.88,5.33l-19.54,7.84Z"/>
      <path class="cls-6" d="M22.44,41.93l-18.83-3.6c-2.33-.45-3.47-1.85-3.58-3.82-.11-1.78,1.45-4.39,3.9-3.91l19.63,3.84c2.29.45,3.3,2.24,3.2,4.03-.09,1.68-1.53,3.99-4.32,3.46Z"/>
      <path class="cls-6" d="M40.38,12.09c2.11,1.57,1.88,4.18.74,5.57s-3.55,1.95-5.38.58l-14.87-11.12c-1.81-1.35-2.15-3.44-1.34-5.08.95-1.91,3.67-2.79,5.72-1.26l15.14,11.31Z"/>
      <g>
        <path class="cls-6" d="M210.86,68.66c2.49.98,3.24,2.61,2.98,4.74-.18,1.52-2.24,3.86-4.5,2.96l-19.85-7.9c-2.07-.83-2.61-3.04-2.17-4.65.56-2.07,2.87-3.27,5.25-2.33l18.28,7.19Z"/>
        <path class="cls-6" d="M192.4,41.87c-2.76.55-4.59-.77-5.08-2.61-.54-1.99.48-4.29,3.05-4.81l18.95-3.83c2.44-.49,4.26,1.28,4.53,3.04.37,2.44-.94,4.13-3.51,4.64l-17.94,3.57Z"/>
        <path class="cls-6" d="M177.86,18.42c-1.92,1.42-4.12.38-5.05-.75-1.14-1.38-1.33-3.95.48-5.32l15.39-11.58c1.79-1.35,4.17-.81,5.32.66,1.31,1.67,1.16,4.19-.9,5.72l-15.25,11.27Z"/>
      </g>
      <g>
        <path class="cls-9" d="M16.5,130.15c-.67,1.01-1.21,3.33-1.21,5.15l.11,97.33c0,2.29,4.33,2.25,5.86,1.82,46.76-13.2,80.93,1.84,85.7.88l17.78-3.59c22.78-4.6,45.5-3.58,67.96,2.7,1.5.42,5.83.5,5.83-1.81l.1-97.33c0-1.82-.56-4.15-1.2-5.19,7.66-1.61,16.42,3.16,16.43,11.95l.07,91.91c0,6.53-3.7,11.65-8.1,14.61-4.98,3.36-10.89,4.04-16.64,2.11-16.88-5.67-34.09-6.45-51.27-1.77l-23.56,6.41c-20.34,5.54-46.45-19.56-90.41-4.42-5.68,1.96-11.77.6-16.44-2.75C3.37,245.18,0,240.2,0,233.97l.07-91.9c0-8.8,8.77-13.55,16.43-11.92Z"/>
        <g>
          <path class="cls-11" d="M197.43,130.11c.64,1.04,1.21,3.37,1.2,5.19l-.1,97.33c0,2.31-4.33,2.23-5.83,1.81-22.47-6.29-45.18-7.3-67.96-2.7l-17.78,3.59.09-28.94c3.87-.51,8.23-1.07,11.65-3.7.96.91,2.53,2.26,4.07,1.95,13.67-2.7,22.62-.49,22.36-6.11-.1-2.11-1.47-3.83-4.12-3.62l-14.02,1.11c-.99.08-2.04-.31-2.42-.84,1.25-2.33,1.3-5.32,1.44-7.81,5.13-.02,9.95-1.82,11.3-7.43,1.12-4.64-1.43-10.14-6.53-11.12.26-1.54,1.7-1.91,3.17-2.94,4.98-3.5,4.66-11.33-.06-14.87,1.99-10.53,8.07-19.02,16.75-25.37l7.21-6.74c9.76.91,19.3,1.98,29.17,4.14,4.4.96,8.07,3.74,10.43,7.06ZM183.45,206.59v-22.62c0-2.56-1.48-4.81-3.9-5.49l-16.59-4.68c-3.44-.97-6.35,1.75-6.35,5.17v23.12c-.01,2.52,1.59,4.72,3.95,5.39l16.47,4.68c3.41.97,6.42-1.62,6.42-5.56ZM145.09,211.56c-.31-1.76-1.83-3.12-4.1-3.03-10.99.4-23.95.97-22.64,6.78.43,1.93,2.33,3.33,4.62,2.87,13.07-2.62,23.24-.26,22.12-6.62Z"/>
          <path class="cls-1" d="M56.14,118.95l7.18,6.71c8.67,6.32,14.75,14.84,16.63,25.3-2.97,2.59-4.13,6.52-3.2,10.19-14.39-1.2-28.92-.9-43.6,1.96-2.22.43-2.74,2.82-2.42,4.38s1.92,3.35,4.26,2.96c15.21-2.52,30.25-3.15,44.99-.94-1.65,2.38-3.65,4.64-3.75,7.46-14.07-2.05-28.48-1.23-42.84,1.4-2.35.43-3.24,3.16-2.48,4.98.47,1.14,1.95,2.72,4.08,2.39,14.35-2.26,28.87-3.32,43.11-1.17,3.34.51,5.9,2.94,9.87,2.93.14,1.61-.11,3.85.54,5.52-17.99-2.48-36.06-2.79-54.29.38-2.49.43-3.67,2.25-3.56,4.16.15,2.67,2.38,3.95,5.34,3.41,19.49-3.58,38.81-2.68,57.94,1.33,4.36.91,7.8,4.8,13.11,4.1l-.09,28.94c-4.78.96-38.95-14.07-85.7-.88-1.53.43-5.86.46-5.86-1.82l-.11-97.33c0-1.82.54-4.14,1.21-5.15,6.52-9.81,25.6-9.15,39.64-11.19ZM90.58,219.8c3.14.64,4.71-1.24,4.83-3.31.09-1.52-.76-3.66-2.92-4.11-19.47-4.07-39.27-4.24-58.87-.78-2.49.44-3.26,3.02-2.83,4.86.37,1.58,1.88,3.03,4.21,2.63,18.46-3.21,36.79-3.13,55.59.7Z"/>
          <path class="cls-15" d="M183.45,206.59c0,3.94-3.01,6.53-6.42,5.56l-16.47-4.68c-2.36-.67-3.97-2.87-3.96-5.39v-23.12c.01-3.42,2.92-6.14,6.36-5.17l16.59,4.68c2.43.68,3.9,2.93,3.9,5.49v22.62Z"/>
          <path class="cls-15" d="M145.09,211.56c1.12,6.36-9.06,4-22.12,6.62-2.29.46-4.18-.94-4.62-2.87-1.31-5.81,11.65-6.37,22.64-6.78,2.26-.08,3.79,1.28,4.1,3.03Z"/>
          <path class="cls-15" d="M118.7,202.69c2.4-1.85,4.41-4.8,5.86-7.5.38.53,1.43.92,2.42.84l14.02-1.11c2.65-.21,4.02,1.51,4.12,3.62.26,5.62-8.69,3.42-22.36,6.11-1.53.3-3.11-1.04-4.07-1.95Z"/>
          <path class="cls-4" d="M90.58,219.8c-18.8-3.83-37.13-3.91-55.59-.7-2.33.41-3.84-1.05-4.21-2.63-.43-1.84.34-4.42,2.83-4.86,19.6-3.47,39.41-3.29,58.87.78,2.17.45,3.02,2.59,2.92,4.11-.12,2.06-1.69,3.95-4.83,3.31Z"/>
          <path class="cls-4" d="M88.51,193.02c1.26,3.23,3.27,6.08,5.43,9.28-19.14-4.01-38.46-4.91-57.94-1.33-2.95.54-5.19-.74-5.34-3.41-.11-1.9,1.07-3.73,3.56-4.16,18.23-3.17,36.3-2.86,54.29-.38Z"/>
          <path class="cls-4" d="M76.74,161.16c.88,3.51,3.95,5.19,6.7,7.43l-3.46.93c-14.75-2.21-29.78-1.57-44.99.94-2.34.39-3.94-1.35-4.26-2.96s.2-3.94,2.42-4.38c14.68-2.87,29.2-3.16,43.6-1.96Z"/>
          <path class="cls-4" d="M76.22,176.97c-.09,2.45,1.15,4.83,1.87,7.59-14.24-2.15-28.76-1.09-43.11,1.17-2.13.33-3.6-1.24-4.08-2.39-.76-1.82.13-4.55,2.48-4.98,14.35-2.63,28.76-3.45,42.84-1.4Z"/>
        </g>
        <path class="cls-3" d="M157.83,118.91l-7.21,6.74c-8.67,6.36-14.76,14.84-16.75,25.37-4.35-3.26-10.7-1.88-15.93-1.89-1.85-9.02-7.12-16.59-14.73-22.4-12.89-9.84-21.71-23.89-24.59-39.44,2.67-1.88,4.35-5,4.62-7.85.32-3.43-1.68-6.87-3.77-8.92,1.96-4.23,2.39-9.84-.77-13.45,5.18-23.88,23.08-43.04,46.56-50.79,22.37,6.21,40.3,23.72,47.05,44.75,7.88,24.56,1.89,49.63-14.48,67.86ZM138.36,70.83c-4.77,2.98-5.73,10.46-1.08,15.01,6.05,5.91,15.83,6.3,22.48,1.08,2.86-2.25,4.21-5.22,4.22-8.38.02-8.11-9.69-13.23-19.52-11.45l-.18-5.65c-.09-2.79-2.44-4.49-4.53-4.04-4.3.93-4.47,9.55-1.38,13.42ZM102.81,64.21c-1.64-1.61-4.36-1.04-5.52.53s-1.12,3.54.66,5.39c6.09,6.35,16.56,6.08,22.2-.8,1.38-1.68.69-4.29-.63-5.3-4.47-3.4-8.96,7.79-16.71.18Z"/>
        <path class="cls-8" d="M125.26,6.29c-23.49,7.75-41.38,26.91-46.56,50.79-1.56,0-4.9.31-5.03,2.43l-.48,7.69c-5.41-1.01-11.14-.4-15.63,3.38-2.85,2.39-4.36,5.39-4.04,8.94.25,2.73,1.69,5.57,4.42,7.63,6.18,4.64,14.63,4.39,20.68.15,2.89,15.55,11.7,29.59,24.59,39.44,7.61,5.81,12.88,13.38,14.73,22.4l-32.03-.06c-2.06,0-4.78.85-5.97,1.89-1.88-10.46-7.96-18.99-16.63-25.3l-7.18-6.71c-20.7-22.77-23.89-56.49-7.57-82.62S96.03-1.82,125.26,6.29Z"/>
        <path class="cls-14" d="M138.36,70.83c1.08-.13,3.12.39,4.29-.51.78-.61,1.85-1.99,1.81-3.23,9.83-1.79,19.54,3.34,19.52,11.45,0,3.16-1.35,6.13-4.22,8.38-6.64,5.23-16.43,4.83-22.48-1.08-4.66-4.55-3.69-12.03,1.08-15.01Z"/>
        <path class="cls-12" d="M73.19,67.2c-.09,1.46.94,2.79,1.88,3.3,1.47.81,3.35.02,4.4.03,2.09,2.05,4.09,5.49,3.77,8.92-.27,2.85-1.94,5.97-4.62,7.85-6.04,4.24-14.49,4.49-20.68-.15-2.74-2.06-4.17-4.9-4.42-7.63-.33-3.55,1.19-6.55,4.04-8.94,4.49-3.78,10.22-4.39,15.63-3.38Z"/>
        <path class="cls-2" d="M102.81,64.21c7.76,7.61,12.24-3.58,16.71-.18,1.32,1,2.01,3.61.63,5.3-5.64,6.88-16.11,7.15-22.2.8-1.78-1.85-1.81-3.83-.66-5.39s3.88-2.13,5.52-.53Z"/>
        <path class="cls-2" d="M144.45,67.09c.04,1.24-1.02,2.62-1.81,3.23-1.16.9-3.2.38-4.29.51-3.09-3.87-2.92-12.5,1.38-13.42,2.09-.45,4.44,1.25,4.53,4.04l.18,5.65Z"/>
        <path class="cls-7" d="M78.7,57.08c3.16,3.61,2.73,9.22.77,13.45-1.05-.01-2.93.78-4.4-.03-.94-.52-1.97-1.84-1.88-3.3l.48-7.69c.13-2.12,3.48-2.42,5.03-2.43Z"/>
        <g>
          <path class="cls-13" d="M117.94,149.14c5.24,0,11.58-1.37,15.93,1.89,4.73,3.54,5.05,11.37.06,14.87-1.47,1.03-2.91,1.39-3.17,2.94-5.31-1.02-10.91-.73-16.81-.67-10.52.1-20.6-.46-30.52.43-2.74-2.25-5.82-3.92-6.7-7.43s.24-7.61,3.2-10.19c1.19-1.04,3.91-1.89,5.97-1.89l32.03.06Z"/>
          <path class="cls-10" d="M130.77,168.83c5.1.98,7.65,6.48,6.53,11.12-1.35,5.62-6.17,7.42-11.3,7.43l-38.03.11c-3.97.01-6.53-2.42-9.87-2.93-.72-2.77-1.96-5.14-1.87-7.59.1-2.82,2.1-5.07,3.75-7.46l3.46-.93c9.92-.89,20.01-.33,30.52-.43,5.9-.06,11.5-.35,16.81.67Z"/>
          <path class="cls-5" d="M126,187.38c-.15,2.49-.19,5.47-1.44,7.81-1.45,2.71-3.47,5.66-5.86,7.5-3.42,2.63-7.77,3.19-11.65,3.7-5.31.7-8.75-3.19-13.11-4.1-2.17-3.2-4.17-6.05-5.43-9.28-.65-1.67-.4-3.92-.54-5.52l38.03-.11Z"/>
        </g>
      </g>
    </g>
  </g>
</svg>