<?xml version="1.0" encoding="UTF-8"?>
<svg id="_圖層_2" data-name="圖層 2" xmlns="http://www.w3.org/2000/svg" viewBox="0 0 256 256">
  <defs>
    <style>
      .cls-1 {
        fill: #9dca42;
      }

      .cls-2 {
        fill: #3b9cd8;
      }

      .cls-3 {
        fill: #b4d56f;
      }

      .cls-4 {
        fill: #b2d46f;
      }

      .cls-5 {
        fill: #a0cb44;
      }

      .cls-6 {
        fill: #67b0e2;
      }

      .cls-7 {
        fill: #66afe1;
      }

      .cls-8 {
        fill: #3a9cd7;
      }

      .cls-9 {
        fill: #9eca42;
      }
    </style>
  </defs>
  <g id="_圖層_1-2" data-name="圖層 1">
    <g>
      <path class="cls-9" d="M91.15,5.42c1.86,9.63,1.22,20.44-5.75,27.93-11.61,12.47-33.68,12.89-33.69,35.44,0,17.15-17.11,16.83-22.45,24.53-5.01,7.21-3.15,18.25,4.16,23.12,6.25,4.18,13.02,6.13,19.4,8.67,0,.25.11.64-.02.94-.48,24.68,6.24,49.18,19.62,70.46.96,1.53,2.11,3.15,1.57,4.68-6.76,19.02,12.86,27.66,3.9,44.58C28.28,224.67-2.78,174.76.2,120.94,3.17,67.12,39.54,20.93,91.15,5.42Z"/>
      <path class="cls-3" d="M75.31,201.02c-.53.17-1.03.16-1.33.18.55-1.53-.6-3.15-1.57-4.68-13.38-21.28-20.1-45.78-19.62-70.46,6.09,2.04,9.05,7.48,12.4,12.89,3.59,5.81,10.63,8.51,16.65,11.08,7.58,3.24,11.1,9.87,7.51,17.52l-12.99,27.74c-.98,2.1-1.55,3.87-1.04,5.73Z"/>
      <g>
        <path class="cls-7" d="M251.95,96.04c8.92,34.59,2.98,71.34-16.39,101.36s-50.4,50.58-85.59,56.7c-30.31-8.61-56.86-27.13-74.65-53.09-.51-1.86.06-3.63,1.04-5.73l12.99-27.74c3.58-7.65.07-14.28-7.51-17.52-6.02-2.57-13.06-5.27-16.65-11.08-3.34-5.41-6.31-10.85-12.4-12.89.14-.3.02-.69.02-.94.75-47.82,28.55-91.3,71.11-112.91.25-.19.67-.33,1.09-.28,1.16,1.72,3.27,2.56,5.39,3.65,11.16,5.73,23.83,11.74,16.96,21.84-2.05,3.02-3.14,7.77-.57,10.75,3.58,4.14,9.71,4.3,14.26,1.9l15.07-7.97c3.28-1.74,7.89-2.77,11.28-.51,9.15,6.12,13.75,20.46,8.95,25.3-5.68,5.74-39.87-8.49-49.8,9.64-4.07,7.43-5.92,15.95-6.2,24.39-.39,12.17,6.56,21.95,17.79,26.02,16.69,6.04,31.67,2.73,34.77,9.14,4.02,8.32,2.45,17.92-1.95,25.85-3.92,7.07-5.14,14.08-3.81,22.1.97,5.88,1.17,11.78,3.6,17.23,1.6,3.6,5.1,5.24,8.69,3.11,13.11-7.78,27.56-34.42,33.51-50.41,8.46-22.72-3.2-46.89,19-57.91ZM85.81,82.16c13.8,2.45,12.07-9.37,18.52-14.87,3.98-3.39,4.64-9.29,1.1-13.01-1.29-1.81-3.04-3.03-5.46-3.51-9.13-.24-16.59,5.45-19.01,14.11-1.97,7.08-9.06,13.46-2.04,16.17,2.22.86,4.45,1.33,6.9,1.1Z"/>
        <path class="cls-3" d="M227.51,47.5c-7.39,4.85-14.33,10.08-11.84,17.38,2.72,7.99,15.41,6.56,25.4,3.15,4.71,8.88,8.36,18.28,10.87,28.02-22.2,11.02-10.55,35.18-19,57.91-5.95,15.99-20.39,42.63-33.51,50.41-3.59,2.13-7.09.49-8.69-3.11-2.43-5.45-2.62-11.35-3.6-17.23-1.33-8.02-.11-15.03,3.81-22.1,4.4-7.93,5.97-17.53,1.95-25.85-3.1-6.41-18.08-3.1-34.77-9.14-11.23-4.07-18.18-13.85-17.79-26.02.27-8.44,2.13-16.97,6.2-24.39,9.94-18.13,44.12-3.9,49.8-9.64,4.79-4.84.2-19.17-8.95-25.3-3.39-2.27-7.99-1.23-11.28.51l-15.07,7.97c-4.55,2.41-10.67,2.25-14.26-1.9-2.57-2.98-1.49-7.73.57-10.75,6.87-10.1-5.8-16.11-16.96-21.84-2.13-1.09-4.23-1.94-5.39-3.65,7.8-4.46,16.46-6.85,24.89-10.03,30.54,5.3,58.12,21.51,77.62,45.61Z"/>
        <path class="cls-8" d="M118.16.38c-.25,4.64,2.51,8.29,5.76,11.82-42.55,21.61-70.35,65.09-71.11,112.91-6.38-2.54-13.15-4.49-19.4-8.67-7.3-4.88-9.17-15.91-4.16-23.12,5.35-7.7,22.45-7.37,22.45-24.53,0-22.56,22.08-22.97,33.69-35.44,6.97-7.49,7.61-18.3,5.75-27.93,8.8-2.64,17.85-4.33,27.01-5.04Z"/>
        <path class="cls-2" d="M149.96,254.1c-24.33,4.24-49.36,1.35-72.09-8.33,8.97-16.92-10.66-25.56-3.9-44.58.3-.02.8,0,1.33-.18,17.79,25.95,44.34,44.48,74.65,53.09Z"/>
        <path class="cls-6" d="M241.08,68.02c-9.99,3.41-22.68,4.84-25.4-3.15-2.49-7.3,4.44-12.53,11.84-17.38,5.17,6.39,9.71,13.27,13.56,20.53Z"/>
        <path class="cls-5" d="M149.9,1.89c-8.42,3.18-17.08,5.57-24.89,10.03-.42-.05-.84.08-1.09.28-3.25-3.53-6.01-7.18-5.76-11.82,10.6-.82,21.26-.31,31.73,1.51Z"/>
        <path class="cls-1" d="M105.43,54.27c-14.19,5.31-12.67,14.17-17.45,21.69-1.32,2.08-1.96,4.13-2.16,6.19-2.45.23-4.68-.25-6.9-1.1-7.01-2.71.07-9.09,2.04-16.17,2.42-8.67,9.88-14.36,19.01-14.11,2.42.47,4.17,1.7,5.46,3.51Z"/>
        <path class="cls-4" d="M85.81,82.16c.2-2.06.84-4.11,2.16-6.19,4.77-7.52,3.26-16.38,17.45-21.69,3.54,3.72,2.88,9.62-1.1,13.01-6.45,5.5-4.71,17.32-18.52,14.87Z"/>
      </g>
    </g>
  </g>
</svg>