<?xml version="1.0" encoding="UTF-8"?>
<svg id="_圖層_2" data-name="圖層 2" xmlns="http://www.w3.org/2000/svg" viewBox="0 0 256.22 256.29">
  <defs>
    <style>
      .cls-1 {
        fill: #efb250;
      }

      .cls-2 {
        fill: #ed9a14;
      }

      .cls-3 {
        fill: #52454f;
      }

      .cls-4 {
        fill: #524550;
      }

      .cls-5 {
        fill: #4c414f;
      }

      .cls-6 {
        fill: #f0b350;
      }

      .cls-7 {
        fill: #f1b350;
      }

      .cls-8 {
        fill: #4b404f;
      }

      .cls-9 {
        fill: #4a404f;
      }

      .cls-10 {
        fill: #f1b451;
      }

      .cls-11 {
        fill: #f0b250;
      }

      .cls-12 {
        fill: #493f4f;
      }
    </style>
  </defs>
  <g id="_圖層_1-2" data-name="圖層 1">
    <g>
      <path class="cls-2" d="M29.72,29.8c1.28,1.25,2.45,2.49,3.67,3.71l47.68,47.86,3.55,3.4,48.09,48.01,3.62,3.68,47.67,47.84,3.96,3.8,46.51,46.65c1.14,1.14,1.77,2.02,1.76,3.69l-13.96,13.95c-5.1,5.09-13.12,5.34-18.55-.09L3.98,52.56c-5.41-5.41-5.17-13.49-.1-18.55l14.33-14.32c2.04.74,3.61,2.44,5.3,4.09l6.21,6.02Z"/>
      <path class="cls-7" d="M220.53,172.19l-10.11,9.35c-1.82,1.77-1.43,4.57.02,5.82,4.49,3.85,8.51-4.58,15.56-9.6,2.36,2.4,4.63,4.54,6.99,6.9-5.63,6.85-14.54,11.52-9.54,15.69,4.36,3.64,8.56-4.88,15.52-9.72l7.13,7.04-9.96,9.57c-1.82,1.82-1.58,4.61.3,6.06,1.31,1.01,3.7,1.11,5.26-.49l9.73-9.7c5.91,4.99,6.51,13.73.87,19.34l-16.07,15.99c.01-1.67-.62-2.55-1.76-3.69l-46.51-46.65c2.03-.63,3.27-1.94,4.7-3.35l20.73-19.71,7.15,7.15Z"/>
      <path class="cls-1" d="M66.01,17.57c-5.95,6.71-14.73,11.7-9.56,15.74,1.26.98,3.65,1.09,5.23-.52l9.71-9.7,7.18,7.13c-5.22,6.93-13.84,10.79-9.68,15.59,1.1,1.27,3.86,1.7,5.68-.14l9.79-9.63,7.14,7.12-9.65,9.8c-1.89,1.97-1.6,4.45.08,5.87,1.92,1.62,4.09,1.05,5.98-.8l9.55-8.9,7.04,7.01-20.29,20.16c-1.51,1.51-2.65,3-3.15,5.06l-47.68-47.86c2.22-.4,3.48-1.57,4.98-3.05l20.61-19.85,7.03,6.95Z"/>
      <path class="cls-11" d="M117.55,69.22l-9.98,9.46c-1.65,1.63-1.63,4.01-.2,5.68.84.98,3.08,2.14,4.64.7l11.38-10.02,7.15,7.15-10.1,9.35c-1.81,1.76-1.44,4.58.02,5.79,4.59,3.82,8.46-4.55,15.56-9.59,2.36,2.4,4.64,4.54,6.99,6.9-5.32,6.67-13.73,10.74-10.05,15.18,4.09,4.93,8.97-4.14,16.03-9.2l7.13,7.04-20.52,20c-1.46,1.45-2.4,2.89-2.87,5.1l-48.09-48.01c2.33-.22,3.68-1.31,5.22-2.84l20.6-19.83,7.1,7.12Z"/>
      <path class="cls-6" d="M168.57,120.23l-10.39,11.04c-1.63,1.77.02,4.23,1.35,5.03,1.62.98,3.59.84,5.04-.62l9.8-9.63,7.14,7.12-9.65,9.8c-1.89,1.97-1.6,4.45.08,5.87,1.92,1.62,4.1,1.05,5.98-.8l9.55-8.9,7.04,7-9.8,9.71c-1.87,1.91-1.62,4.42.24,5.99,1.44,1.21,3.59,1.25,5.34-.44l9.93-9.47,7.34,7.3-21.52,20.92c-1.18,1.18-1.68,2.64-2.03,4.15l-47.67-47.84c1.43-.62,2.82-1.08,3.88-2.15l21.17-21.22,7.18,7.13Z"/>
      <path class="cls-10" d="M53.5,5.14l-22.2,21.26c-.91.89-1.14,2.3-1.59,3.4l-6.21-6.02c-1.69-1.64-3.26-3.35-5.3-4.09L34.35,3.54c5.67-5.68,14.36-4.08,19.15,1.59Z"/>
      <path class="cls-3" d="M213.39,165.04l-20.73,19.71c-1.43,1.41-2.67,2.72-4.7,3.35l-3.96-3.8c.36-1.51.85-2.98,2.03-4.15l21.52-20.92,5.83,5.82Z"/>
      <path class="cls-9" d="M161.39,113.09l-21.17,21.22c-1.06,1.07-2.45,1.53-3.88,2.15l-3.62-3.68c.47-2.21,1.41-3.65,2.87-5.1l20.52-20,5.28,5.42Z"/>
      <path class="cls-12" d="M58.98,10.62l-20.61,19.85c-1.49,1.48-2.76,2.65-4.98,3.05-1.22-1.22-2.38-2.47-3.67-3.71.45-1.1.68-2.51,1.59-3.4L53.5,5.14c1.68,2,3.7,3.72,5.48,5.48Z"/>
      <path class="cls-12" d="M110.44,62.1l-20.6,19.83c-1.54,1.53-2.9,2.62-5.22,2.84l-3.55-3.4c.5-2.06,1.64-3.55,3.15-5.06l20.29-20.16,5.93,5.96Z"/>
      <path class="cls-4" d="M123.39,75.05l-11.38,10.02c-1.56,1.44-3.8.28-4.64-.7-1.42-1.66-1.45-4.04.2-5.68l9.98-9.46,5.84,5.83Z"/>
      <path class="cls-5" d="M174.37,126.05l-9.8,9.63c-1.45,1.46-3.42,1.6-5.04.62-1.33-.8-2.98-3.26-1.35-5.03l10.39-11.04,5.8,5.82Z"/>
      <path class="cls-5" d="M84.36,36.05l-9.79,9.63c-1.83,1.84-4.58,1.4-5.68.14-4.16-4.8,4.45-8.66,9.68-15.59l5.8,5.82Z"/>
      <path class="cls-8" d="M251.43,203.12l-9.73,9.7c-1.56,1.6-3.95,1.51-5.26.49-1.88-1.45-2.12-4.24-.3-6.06l9.96-9.57c1.8,1.78,3.39,3.81,5.33,5.44Z"/>
      <path class="cls-8" d="M97.46,49.14l-9.55,8.9c-1.89,1.85-4.06,2.42-5.98.8-1.69-1.43-1.98-3.9-.08-5.87l9.65-9.8,5.96,5.97Z"/>
      <path class="cls-8" d="M187.47,139.14l-9.55,8.9c-1.89,1.85-4.06,2.42-5.98.8-1.68-1.42-1.97-3.91-.08-5.87l9.65-9.8,5.96,5.98Z"/>
      <path class="cls-9" d="M200.21,151.92l-9.93,9.47c-1.75,1.69-3.9,1.65-5.34.44-1.86-1.56-2.1-4.08-.24-5.99l9.8-9.71,5.71,5.78Z"/>
      <path class="cls-9" d="M136.01,87.76c-7.1,5.04-10.97,13.4-15.56,9.59-1.46-1.21-1.82-4.04-.02-5.79l10.1-9.35,5.47,5.56Z"/>
      <path class="cls-9" d="M148.98,100.63c-7.06,5.07-11.94,14.14-16.03,9.2-3.68-4.44,4.74-8.51,10.05-15.18l5.97,5.98Z"/>
      <path class="cls-9" d="M226.01,177.76c-7.05,5.02-11.07,13.45-15.56,9.6-1.45-1.25-1.84-4.05-.02-5.82l10.11-9.35,5.47,5.57Z"/>
      <path class="cls-9" d="M238.97,190.63c-6.96,4.84-11.16,13.36-15.52,9.72-5-4.17,3.91-8.84,9.54-15.69l5.97,5.98Z"/>
      <path class="cls-8" d="M71.39,23.09l-9.71,9.7c-1.57,1.6-3.97,1.5-5.23.52-5.17-4.04,3.61-9.02,9.56-15.74l5.38,5.52Z"/>
    </g>
  </g>
</svg>