<?xml version="1.0" encoding="UTF-8"?>
<svg id="_圖層_2" data-name="圖層 2" xmlns="http://www.w3.org/2000/svg" viewBox="0 0 255.92 245.26">
  <defs>
    <style>
      .cls-1 {
        fill: #f6f6f6;
      }

      .cls-2 {
        fill: #ecb160;
      }

      .cls-3 {
        fill: #ce4c3f;
      }

      .cls-4 {
        fill: #d7d5d5;
      }

      .cls-5 {
        fill: #746150;
      }

      .cls-6 {
        fill: #e55546;
      }

      .cls-7 {
        fill: #b14037;
      }

      .cls-8 {
        fill: #a03a30;
      }

      .cls-9 {
        fill: #cccbcb;
      }

      .cls-10 {
        fill: #a8a8a7;
      }

      .cls-11 {
        fill: #8c7661;
      }

      .cls-12 {
        fill: #a6a3a3;
      }

      .cls-13 {
        fill: #bbb;
      }

      .cls-14 {
        fill: #b24138;
      }

      .cls-15 {
        fill: #8a312a;
      }
    </style>
  </defs>
  <g id="_圖層_1-2" data-name="圖層 1">
    <g>
      <g>
        <path class="cls-7" d="M90.14,100.28c-7.78,2.7-14.4,8.2-16.31,16.64-1.81-1.06-4.95.73-6.07,2.18-1.35,1.75-1.72,5.43.49,7.07,1.43,1.07,2.8,2.39,3.99,3.07l-.03,59.93-22.16.04.05-89.01,40.05.07Z"/>
        <path class="cls-7" d="M200.3,100.21l-.11,89.01-22.18.05-.07-59.94c1.76-1.13,3.96-2.54,5.14-4.64s.35-4.42-.94-5.89c-1.1-1.24-4.33-2.93-5.87-1.9-1.39-8.29-8.18-13.67-15.56-16.6l39.59-.09Z"/>
        <path class="cls-6" d="M105.61,100.28c-.05,1.6-.22,3.18.45,5.54h32.78s.4-5.53.4-5.53h5.53s15.94.01,15.94.01c7.38,2.93,14.16,8.31,15.56,16.6l-14.42,9.67-.19-4.13h-66.89s-11.08.27-11.08.27l-9.86-5.8c1.9-8.45,8.52-13.94,16.31-16.64h15.48Z"/>
        <path class="cls-3" d="M111.22,100.15l28.02.14-.4,5.53h-32.78c-.66-2.36-.5-3.93-.45-5.53l5.6-.13Z"/>
        <path class="cls-2" d="M73.83,116.92l9.86,5.8,11,6.63c3.57,2.15,7.3,3.82,11.23,5.21,13.72,4.85,28.88,4.57,42.39-.74,4.83-1.9,9.22-4.36,13.54-7.25l14.42-9.67c1.54-1.03,4.78.66,5.87,1.9,1.29,1.46,2.14,3.76.94,5.89s-3.39,3.5-5.14,4.64l-16.9,10.9-11.02,4.94c-5.35,2.4-11.37,2.74-17.1,4.24l-5.06-4.67c-1.86,2.14-3.12,3.54-4.92,4.64-5.78-.83-11.7-1.05-17.1-3.09l-11.1-4.2-22.5-12.85c-1.18-.68-2.55-2-3.99-3.07-2.21-1.64-1.85-5.32-.49-7.07,1.13-1.45,4.27-3.25,6.07-2.18Z"/>
        <path class="cls-3" d="M94.74,142.09l-.18,52.66-11.16-.06c.05-2.86-1.95-5.4-5.47-5.45l-5.72-.07.03-59.93,22.5,12.85Z"/>
        <path class="cls-3" d="M178,189.27c-3.42,0-5.46,2.68-5.43,5.97l-11.22-.45-.33-54.56,16.9-10.9.07,59.94Z"/>
        <path class="cls-8" d="M161.85,126.57c-4.31,2.89-8.71,5.35-13.54,7.25l-40.39-.2c-1.08,0-1.69.15-2,.95-3.93-1.39-7.66-3.06-11.23-5.21-.28-2.35-.25-4.65.08-6.9h66.89s.19,4.12.19,4.12Z"/>
        <path class="cls-3" d="M94.77,122.45c-.33,2.25-.36,4.55-.08,6.9l-11-6.63,11.08-.27Z"/>
        <path class="cls-15" d="M150.01,145.17l.22,49.61h-44.56s.16-48.49.16-48.49c5.4,2.04,11.32,2.26,17.1,3.09-.76.54-1.52,1.93-2.45,3.24,1.3,2.28,3.27,3.71,5.08,5.19l-5.22,5.72c1.39,2.43,3.18,3.82,5.41,5.05-1.52,2.1-3,3.86-5.59,6.05l7.8,8.01,7.78-8.01c-2.37-2.16-3.93-3.42-5.33-5.95,1.42-.81,4.91-3.14,4.63-5.1-.85-2.31-3.79-3.74-4.68-5.76l5.37-4.72c-.72-1.58-1.83-2.75-2.83-3.68,5.73-1.5,11.75-1.84,17.1-4.24Z"/>
        <polygon class="cls-8" points="161.36 194.79 150.24 194.78 150.01 145.17 161.03 140.23 161.36 194.79"/>
        <polygon class="cls-8" points="105.84 146.29 105.68 194.78 94.56 194.75 94.74 142.09 105.84 146.29"/>
        <path class="cls-15" d="M148.31,133.82c-13.52,5.31-28.67,5.6-42.39.74.31-.79.92-.94,2-.95l40.39.2Z"/>
        <path class="cls-4" d="M132.91,149.41c1.01.93,2.11,2.1,2.83,3.68l-5.37,4.72c-.4-.92-3.09-1.88-4.81,0-1.81-1.48-3.78-2.91-5.08-5.19.93-1.31,1.69-2.7,2.45-3.24,1.8-1.1,3.06-2.51,4.92-4.64l5.06,4.67Z"/>
        <path class="cls-4" d="M130.42,168.67c1.4,2.53,2.96,3.79,5.33,5.95l-7.78,8.01-7.8-8.01c2.59-2.19,4.07-3.95,5.59-6.05.91-1.26,4-1.1,4.66.09Z"/>
        <path class="cls-9" d="M130.37,157.81c.88,2.02,3.83,3.45,4.68,5.76.27,1.96-3.21,4.29-4.63,5.1-.66-1.19-3.75-1.35-4.66-.09-2.23-1.23-4.02-2.62-5.41-5.05l5.22-5.72c1.72-1.88,4.4-.93,4.81,0Z"/>
        <g>
          <path class="cls-5" d="M44.34,55.56l23.28.03,24.74-.06-13.06,13.25c-2.05,2.08-1.48,5.37-.1,7.02,1.8,2.16,5.62,2.99,7.87.75l21.24-21.09c3.46.49,6.42.37,9.37.18,6.83.42,13.74.42,20.57,0,2.94.21,5.9.29,8.97-.55l21.61,21.48c2.03,2.01,5.56,1.65,7.47-.15,1.74-1.65,2.62-5.37.35-7.66l-12.69-12.82,24.34-.34,17.69.08,10.7.05,3.25,3.77c8.66,11.93,21.65,19.12,35.95,23.8v16.93s-55.61,0-55.61,0l-39.59.09-15.94-.02-.2-22.35h-33.24s-.11,22.22-.11,22.22l-5.6.13h-15.48s-40.05-.07-40.05-.07H0s.26-17.04.26-17.04c13.86-4.46,25.94-11.27,34.41-22.07,3.97-5.06,3.64-5.55,9.67-5.54Z"/>
          <path class="cls-14" d="M188.31,55.58l-24.34.34-31.18-31.24c-3.03-3.03-6.64-3.02-9.66,0l-30.78,30.84-24.74.06L127.96,0l60.35,55.58Z"/>
          <path class="cls-14" d="M44.34,55.56c-6.03,0-5.7.49-9.67,5.54-7.82-1.79-14.69-6.93-17.66-14.81-1.21-3.21.75-6.34,3.84-7.18,2.49-.68,5.45.68,6.8,3.68,4.76,10.54,16.18,4.13,16.69,12.77Z"/>
          <path class="cls-14" d="M219.96,59.48l-3.25-3.77-10.7-.05c.21-8.78,12.03-2.21,16.94-13.19,1.32-2.96,4.34-4.08,6.82-3.24,2.71.91,4.75,3.67,3.65,6.82-2.24,6.39-7.36,11.34-13.46,13.43Z"/>
          <path class="cls-3" d="M163.97,55.92l12.69,12.82c2.27,2.29,1.39,6.01-.35,7.66-1.91,1.8-5.44,2.17-7.47.15l-21.61-21.48-19.27-19.31-19.65,19.68-21.24,21.09c-2.26,2.24-6.07,1.41-7.87-.75-1.38-1.65-1.95-4.94.1-7.02l13.06-13.25,30.78-30.84c3.02-3.02,6.63-3.03,9.66,0l31.18,31.24Z"/>
          <polygon class="cls-12" points="144.77 100.28 139.24 100.29 111.22 100.15 111.32 77.93 144.57 77.93 144.77 100.28"/>
          <path class="cls-15" d="M147.23,55.08c-3.08.84-6.03.76-8.97.55-2.82-3.93-6.36-7.09-10.21-10.85-4.09,3.75-7.5,6.94-10.36,10.85-2.95.19-5.91.31-9.37-.18l19.65-19.68,19.27,19.31Z"/>
          <path class="cls-8" d="M138.26,55.63c-6.83.42-13.74.42-20.57,0,2.86-3.91,6.27-7.1,10.36-10.85,3.85,3.76,7.39,6.92,10.21,10.85Z"/>
        </g>
      </g>
      <g>
        <path class="cls-13" d="M5.47,217.41c.65-.11,1.18-.33,1.58-.32l-.38,25.59c-.02,1.67,4.98,1.92,6.24.83l52.03-.02c2.42.42,4.64.76,7.28.24l.03-15.24c2.03-.63,3.91-.25,5.74-.24l91.88.06,8.1-.43,11.14.39-.12,15.57,54.99-.28c1.15,1.21,5.38.56,5.34-.96-.22-8.96-.57-17.23-.4-25.56l1.58-.58c.3,9.41.37,19.14-.16,28.67l-56.47.13-126.81-.02-61.58-.12c-.28-9.64-.27-18.79,0-27.72Z"/>
        <polygon class="cls-9" points="83.3 211.35 172.48 211.35 177.9 211.67 178.08 217.25 177.97 227.88 169.87 228.3 77.99 228.24 77.89 217.27 78.01 211.67 83.3 211.35"/>
        <polygon class="cls-4" points="94.56 194.75 105.68 194.78 150.24 194.78 161.36 194.79 172.58 195.24 172.63 200.42 172.61 205.66 172.48 211.35 83.3 211.35 83.34 205.86 83.29 200.42 83.4 194.7 94.56 194.75"/>
        <g>
          <path class="cls-11" d="M50.04,189.22l22.16-.04,5.72.07c3.52.05,5.52,2.59,5.47,5.45l-.11,5.72-11.18.03-10.98-.07-11.08.04h-11.15s-11.03,0-11.03,0l-11.56.11c-3.61-.31-7.22-.18-10.84,0v-5.82c.02-3.05,2.31-5.4,5.46-5.4l39.11-.07Z"/>
          <path class="cls-11" d="M16.71,205.68v11.49s-9.66-.09-9.66-.09c-.4,0-.93.21-1.58.32l.33-11.11,10.91-.61Z"/>
          <path class="cls-5" d="M16.31,200.52l.4,5.17-10.91.61c-.46-1.9-.33-3.85-.32-5.79,3.62-.17,7.23-.31,10.84,0Z"/>
          <path class="cls-10" d="M16.72,217.18c3.71.03,7.4-.08,11.11-.06l11.06.07h11.08s11.2-.14,11.2-.14l11.05.02,5.67.21.1,10.97c-1.82,0-3.71-.39-5.74.24l-.03,15.24c-2.65.52-4.86.17-7.28-.24l-52.03.02c-1.27,1.09-6.26.84-6.24-.83l.38-25.59,9.67.09Z"/>
          <path class="cls-1" d="M27.87,200.4l-.03,5.9v10.82c-3.72-.02-7.41.09-11.12.06v-11.49s-.41-5.17-.41-5.17l11.56-.11Z"/>
          <polygon class="cls-1" points="50.05 200.41 49.95 206.21 49.96 217.18 38.88 217.18 38.95 206.31 38.9 200.41 50.05 200.41"/>
          <polygon class="cls-7" points="72.11 200.45 72.32 205.75 72.21 217.06 61.16 217.04 61.12 206.06 61.13 200.37 72.11 200.45"/>
          <path class="cls-5" d="M38.9,200.41l.05,5.9c-3.67-.56-7.43-.51-11.11-.02l.03-5.9h11.03Z"/>
          <path class="cls-5" d="M61.13,200.37v5.69c-3.74-.16-7.47-.25-11.19.15l.1-5.8,11.08-.04Z"/>
          <polygon class="cls-5" points="83.29 200.42 83.34 205.86 72.32 205.75 72.11 200.45 83.29 200.42"/>
          <path class="cls-11" d="M38.95,206.31l-.07,10.87-11.06-.07v-10.82c3.7-.5,7.46-.55,11.13.02Z"/>
          <path class="cls-11" d="M61.12,206.06l.04,10.98-11.2.14v-10.97c3.7-.41,7.44-.32,11.16-.15Z"/>
          <polygon class="cls-11" points="83.34 205.86 83.3 211.35 78.01 211.67 77.89 217.27 72.21 217.06 72.32 205.75 83.34 205.86"/>
        </g>
        <g>
          <path class="cls-11" d="M178,189.27l22.18-.05,44.78.06c3.02,0,5.37,2.18,5.34,5.13l-.06,6.28c-3.72-.56-7.43-.43-11.12-.15l-11.07-.15-11.02.02h-11.16s-11.07-.03-11.07-.03l-10.98.06-11.19-.03-.05-5.18c-.03-3.29,2.01-5.97,5.43-5.97Z"/>
          <polygon class="cls-11" points="250.17 206.05 250.5 216.45 248.92 217.04 239.2 217.15 239.26 205.67 250.17 206.05"/>
          <path class="cls-5" d="M250.24,200.69l-.08,5.36-10.91-.38-.14-5.12c3.69-.28,7.4-.41,11.12.15Z"/>
          <path class="cls-10" d="M183.71,217.06h11.07s11.18.13,11.18.13h11.08s11.02.02,11.02.02l11.15-.06,9.71-.11c-.17,8.33.18,16.61.4,25.56.04,1.51-4.19,2.17-5.34.96l-54.99.28.12-15.57-11.14-.39.11-10.63,5.63-.19Z"/>
          <polygon class="cls-7" points="194.79 200.38 194.81 206.06 194.78 217.05 183.71 217.06 183.59 205.76 183.81 200.45 194.79 200.38"/>
          <polygon class="cls-1" points="217.03 200.41 216.96 206.3 217.04 217.18 205.96 217.19 205.97 206.21 205.87 200.41 217.03 200.41"/>
          <polygon class="cls-1" points="239.12 200.55 239.26 205.67 239.2 217.15 228.06 217.21 228.08 206.3 228.05 200.4 239.12 200.55"/>
          <polygon class="cls-5" points="205.87 200.41 205.97 206.21 194.81 206.06 194.79 200.38 205.87 200.41"/>
          <path class="cls-5" d="M228.05,200.4l.03,5.9c-3.69-.49-7.45-.56-11.12,0l.07-5.89,11.02-.02Z"/>
          <path class="cls-5" d="M183.81,200.45l-.22,5.31c-3.65.26-7.3.39-10.99-.1l.02-5.24,11.19.03Z"/>
          <path class="cls-11" d="M183.59,205.76l.12,11.3-5.63.19-.19-5.58-5.41-.32.12-5.69c3.69.49,7.34.36,10.99.1Z"/>
          <polygon class="cls-11" points="205.97 206.21 205.96 217.19 194.78 217.05 194.81 206.06 205.97 206.21"/>
          <path class="cls-11" d="M228.08,206.3l-.03,10.91-11.02-.02-.08-10.88c3.66-.56,7.43-.5,11.12,0Z"/>
        </g>
      </g>
    </g>
  </g>
</svg>