<?xml version="1.0" encoding="UTF-8"?>
<svg id="_喇뒨쏛_2" data-name="喇뒨쏛 2" xmlns="http://www.w3.org/2000/svg" viewBox="0 0 130.3 134.74">
  <defs>
    <style>
      .cls-1 {
        fill: #323333;
      }
    </style>
  </defs>
  <g id="_喇뒨쏛_1-2" data-name="喇뒨쏛 1">
    <g id="uuid-107c3687-d633-49ec-823f-d9f515365735" data-name=" 喇뒨쏛 1-2">
      <path class="cls-1" d="M65.15,0c9,.11,18.71,4.35,23.69,10.69,9.19,10.22,11.81,24.92,8.74,38.29,3.94-.87,6.2,0,7.29,3.58.94,5.65-5.17,11.02-8.24,15.19-1.26,5.81-2.15,11.92-6.04,16.57-4.94,6.63-.6,16.02,7.98,14.92,9.28,6.51,21.29,7.42,31.73,11.3l-.04,24.2H.04l-.04-24.2c10.43-3.88,22.45-4.8,31.73-11.3,8.58,1.1,12.92-8.29,7.98-14.92-3.9-4.65-4.78-10.76-6.04-16.57-3.07-4.18-9.18-9.54-8.24-15.19,1.1-3.57,3.35-4.46,7.29-3.58-3.08-13.37-.45-28.07,8.74-38.29C46.44,4.35,56.14.11,65.15,0"/>
    </g>
  </g>
</svg>