<?xml version="1.0" encoding="UTF-8"?>
<svg id="_喇뒨쏛_2" data-name="喇뒨쏛 2" xmlns="http://www.w3.org/2000/svg" viewBox="0 0 174.32 174.32">
  <defs>
    <style>
      .cls-1 {
        fill: #943dff;
      }

      .cls-2 {
        fill: #f0f0f0;
      }
    </style>
  </defs>
  <g id="_喇뒨쏛_2-2" data-name=" 喇뒨쏛 2">
    <circle class="cls-1" cx="87.16" cy="87.16" r="87.16"/>
    <path class="cls-2" d="M46.02,132.39c-7.82,5.26-17.22,7.43-26.5,9.74,15.94,19.59,40.22,32.13,67.43,32.19h.43c27.21-.07,51.49-12.6,67.43-32.19-9.28-2.31-18.68-4.48-26.5-9.74-10.56,1.29-15.91-9.8-9.83-17.63,4.8-5.49,5.89-12.71,7.44-19.57,3.78-4.93,11.31-11.27,10.14-17.95-1.35-4.22-4.13-5.26-8.98-4.23,3.79-15.8.55-33.16-10.76-45.24-6.14-7.49-18.08-12.5-29.17-12.63-11.08.14-23.03,5.14-29.17,12.63-11.31,12.08-14.54,29.44-10.76,45.24-4.85-1.03-7.63,0-8.98,4.23-1.16,6.68,6.36,13.02,10.14,17.95,1.56,6.87,2.64,14.08,7.44,19.57,6.08,7.83.73,18.92-9.83,17.63h.03Z"/>
  </g>
</svg>