<svg xmlns="http://www.w3.org/2000/svg" viewBox="0 0 1400 2200" font-family="'Noto Sans TC','PingFang TC','Microsoft JhengHei',sans-serif">
  <defs>
    <marker id="arrow" viewBox="0 0 10 10" refX="10" refY="5" markerWidth="8" markerHeight="8" orient="auto-start-auto">
      <path d="M 0 0 L 10 5 L 0 10 z" fill="#555"/>
    </marker>
    <filter id="shadow" x="-2%" y="-2%" width="104%" height="104%">
      <feDropShadow dx="1" dy="1" stdDeviation="2" flood-opacity="0.15"/>
    </filter>
    <linearGradient id="gStart" x1="0" y1="0" x2="0" y2="1">
      <stop offset="0%" stop-color="#1a5276"/>
      <stop offset="100%" stop-color="#2980b9"/>
    </linearGradient>
    <linearGradient id="gFlat" x1="0" y1="0" x2="0" y2="1">
      <stop offset="0%" stop-color="#2c3e50"/>
      <stop offset="100%" stop-color="#34495e"/>
    </linearGradient>
    <linearGradient id="gRaised" x1="0" y1="0" x2="0" y2="1">
      <stop offset="0%" stop-color="#7d3c98"/>
      <stop offset="100%" stop-color="#8e44ad"/>
    </linearGradient>
    <linearGradient id="gFluid" x1="0" y1="0" x2="0" y2="1">
      <stop offset="0%" stop-color="#c0392b"/>
      <stop offset="100%" stop-color="#e74c3c"/>
    </linearGradient>
    <linearGradient id="gInflam" x1="0" y1="0" x2="0" y2="1">
      <stop offset="0%" stop-color="#d35400"/>
      <stop offset="100%" stop-color="#e67e22"/>
    </linearGradient>
    <linearGradient id="gInfec" x1="0" y1="0" x2="0" y2="1">
      <stop offset="0%" stop-color="#1e8449"/>
      <stop offset="100%" stop-color="#27ae60"/>
    </linearGradient>
    <linearGradient id="gVasc" x1="0" y1="0" x2="0" y2="1">
      <stop offset="0%" stop-color="#922b21"/>
      <stop offset="100%" stop-color="#b03a2e"/>
    </linearGradient>
    <linearGradient id="gTumor" x1="0" y1="0" x2="0" y2="1">
      <stop offset="0%" stop-color="#6c3483"/>
      <stop offset="100%" stop-color="#8e44ad"/>
    </linearGradient>
  </defs>

  <!-- Background -->
  <rect width="1400" height="2200" fill="#f7f9fc" rx="8"/>

  <!-- Title -->
  <text x="700" y="45" text-anchor="middle" font-size="26" font-weight="bold" fill="#1a1a2e">皮膚科鑑別診斷演算法 — Dermatology Differential Diagnosis Algorithm</text>
  <text x="700" y="70" text-anchor="middle" font-size="13" fill="#888">以原發病灶形態（Primary Lesion Morphology）為核心之分類系統</text>
  <line x1="200" y1="82" x2="1200" y2="82" stroke="#ddd" stroke-width="1"/>

  <!-- ===== START NODE ===== -->
  <rect x="525" y="100" width="350" height="50" rx="25" fill="url(#gStart)" filter="url(#shadow)"/>
  <text x="700" y="120" text-anchor="middle" font-size="15" font-weight="bold" fill="#fff">START</text>
  <text x="700" y="138" text-anchor="middle" font-size="13" fill="#d5f4e6">Step 1: Identify Primary Lesion</text>

  <!-- Arrow down from Start -->
  <line x1="700" y1="150" x2="700" y2="170" stroke="#555" stroke-width="1.5" marker-end="url(#arrow)"/>

  <!-- ===== STEP 1 BOX ===== -->
  <rect x="350" y="175" width="700" height="44" rx="8" fill="#2c3e50" filter="url(#shadow)"/>
  <text x="700" y="197" text-anchor="middle" font-size="16" font-weight="bold" fill="#fff">Step 1: Identify Primary Lesion（鑑別原發病灶）</text>
  <text x="700" y="213" text-anchor="middle" font-size="12" fill="#bdc3c7">先找出單一、最早出現的病灶形態，這是整個鑑別診斷的關鍵第一步</text>

  <!-- Branch arrows from Step 1 -->
  <line x1="700" y1="219" x2="700" y2="245" stroke="#555" stroke-width="1.5" marker-end="url(#arrow)"/>

  <!-- ===== FIVE MAIN BRANCHES ===== -->

  <!-- 1. MACULE / PATCH (Flat) -->
  <rect x="50" y="250" width="220" height="55" rx="10" fill="url(#gFlat)" filter="url(#shadow)"/>
  <text x="160" y="276" text-anchor="middle" font-size="15" font-weight="bold" fill="#fff">Flat Lesions</text>
  <text x="160" y="294" text-anchor="middle" font-size="12" fill="#d5f4e6">平坦病灶</text>
  <text x="160" y="308" text-anchor="middle" font-size="11" fill="#bbb">Macule / Patch</text>

  <!-- 2. PAPULE / PLAQUE / NODULE (Raised) -->
  <rect x="330" y="250" width="220" height="55" rx="10" fill="url(#gRaised)" filter="url(#shadow)"/>
  <text x="440" y="276" text-anchor="middle" font-size="15" font-weight="bold" fill="#fff">Raised / Solid</text>
  <text x="440" y="294" text-anchor="middle" font-size="12" fill="#f0e6f6">隆起實質病灶</text>
  <text x="440" y="308" text-anchor="middle" font-size="11" fill="#ddd">Papule / Plaque / Nodule</text>

  <!-- 3. VESICLE / BULLA (Fluid-filled) -->
  <rect x="590" y="250" width="220" height="55" rx="10" fill="url(#gFluid)" filter="url(#shadow)"/>
  <text x="700" y="276" text-anchor="middle" font-size="15" font-weight="bold" fill="#fff">Fluid-filled</text>
  <text x="700" y="294" text-anchor="middle" font-size="12" fill="#fce4ec">液體填充病灶</text>
  <text x="700" y="308" text-anchor="middle" font-size="11" fill="#ffcdd2">Vesicle / Bulla / Pustule</text>

  <!-- 4. WHEAL (Urticaria) -->
  <rect x="850" y="250" width="220" height="55" rx="10" fill="url(#gInflam)" filter="url(#shadow)"/>
  <text x="960" y="276" text-anchor="middle" font-size="15" font-weight="bold" fill="#fff">Edematous</text>
  <text x="960" y="294" text-anchor="middle" font-size="12" fill="#fdebd0">水腫性病灶</text>
  <text x="960" y="308" text-anchor="middle" font-size="11" fill="#f5cba7">Wheal / Urticaria</text>

  <!-- 5. SCALE / EROSION / ULCER (Secondary) -->
  <rect x="1110" y="250" width="220" height="55" rx="10" fill="url(#gTumor)" filter="url(#shadow)"/>
  <text x="1220" y="270" text-anchor="middle" font-size="15" font-weight="bold" fill="#fff">Secondary</text>
  <text x="1220" y="288" text-anchor="middle" font-size="12" fill="#e8daef">續發性病灶</text>
  <text x="1220" y="306" text-anchor="middle" font-size="11" fill="#d2b4de">Scale / Erosion / Ulcer</text>

  <!-- Connector line from Step1 to branches -->
  <line x1="700" y1="245" x2="700" y2="248" stroke="#555" stroke-width="1.5"/>
  <line x1="160" y1="248" x2="1220" y2="248" stroke="#555" stroke-width="1.5"/>
  <line x1="160" y1="248" x2="160" y2="250" stroke="#555" stroke-width="1.5" marker-end="url(#arrow)"/>
  <line x1="440" y1="248" x2="440" y2="250" stroke="#555" stroke-width="1.5" marker-end="url(#arrow)"/>
  <line x1="700" y1="248" x2="700" y2="250" stroke="#555" stroke-width="1.5" marker-end="url(#arrow)"/>
  <line x1="960" y1="248" x2="960" y2="250" stroke="#555" stroke-width="1.5" marker-end="url(#arrow)"/>
  <line x1="1220" y1="248" x2="1220" y2="250" stroke="#555" stroke-width="1.5" marker-end="url(#arrow)"/>

  <!-- ======================================================================== -->
  <!-- BRANCH 1: FLAT LESIONS (Macule / Patch) — Column 1 (x=50..270, center=160) -->
  <!-- ======================================================================== -->
  <rect x="30" y="330" width="260" height="36" rx="6" fill="#2c3e50"/>
  <text x="160" y="354" text-anchor="middle" font-size="13" font-weight="bold" fill="#fff">FLAT LESIONS: Macule / Patch</text>

  <line x1="160" y1="366" x2="160" y2="385" stroke="#555" marker-end="url(#arrow)"/>

  <!-- Hypopigmented -->
  <rect x="40" y="390" width="240" height="28" rx="5" fill="#5d6d7e"/>
  <text x="160" y="409" text-anchor="middle" font-size="12" font-weight="bold" fill="#fff">Hypopigmented（色素減退）</text>

  <line x1="160" y1="418" x2="160" y2="433" stroke="#555" marker-end="url(#arrow)"/>

  <rect x="40" y="438" width="115" height="22" rx="3" fill="#ebedef"/><text x="97" y="453" text-anchor="middle" font-size="11" fill="#2c3e50">Pityriasis versicolor</text>
  <rect x="165" y="438" width="115" height="22" rx="3" fill="#ebedef"/><text x="222" y="453" text-anchor="middle" font-size="11" fill="#2c3e50">Vitiligo</text>
  <rect x="40" y="465" width="115" height="22" rx="3" fill="#ebedef"/><text x="97" y="480" text-anchor="middle" font-size="11" fill="#2c3e50">Post-inflammatory</text>
  <rect x="165" y="465" width="115" height="22" rx="3" fill="#ebedef"/><text x="222" y="480" text-anchor="middle" font-size="11" fill="#2c3e50">Tuberous sclerosis</text>

  <line x1="160" y1="497" x2="160" y2="512" stroke="#555" marker-end="url(#arrow)"/>

  <!-- Hyperpigmented -->
  <rect x="40" y="517" width="240" height="28" rx="5" fill="#5d6d7e"/>
  <text x="160" y="536" text-anchor="middle" font-size="12" font-weight="bold" fill="#fff">Hyperpigmented（色素沉著）</text>

  <line x1="160" y1="545" x2="160" y2="560" stroke="#555" marker-end="url(#arrow)"/>

  <rect x="40" y="565" width="115" height="22" rx="3" fill="#ebedef"/><text x="97" y="580" text-anchor="middle" font-size="11" fill="#2c3e50">Melasma</text>
  <rect x="165" y="565" width="115" height="22" rx="3" fill="#ebedef"/><text x="222" y="580" text-anchor="middle" font-size="11" fill="#2c3e50">Freckles (ephelides)</text>
  <rect x="40" y="595" width="115" height="22" rx="3" fill="#ebedef"/><text x="97" y="610" text-anchor="middle" font-size="11" fill="#2c3e50">Café-au-lait spots</text>
  <rect x="165" y="595" width="115" height="22" rx="3" fill="#ebedef"/><text x="222" y="610" text-anchor="middle" font-size="11" fill="#2c3e50">Lentigo</text>

  <line x1="160" y1="627" x2="160" y2="642" stroke="#555" marker-end="url(#arrow)"/>

  <!-- Erythematous -->
  <rect x="40" y="647" width="240" height="28" rx="5" fill="#5d6d7e"/>
  <text x="160" y="666" text-anchor="middle" font-size="12" font-weight="bold" fill="#fff">Erythematous（紅斑）</text>

  <line x1="160" y1="675" x2="160" y2="690" stroke="#555" marker-end="url(#arrow)"/>

  <rect x="40" y="695" width="240" height="20" rx="3" fill="#fadbd8"/><text x="160" y="709" text-anchor="middle" font-size="11" fill="#922b21">Drug eruption (morbilliform)</text>
  <rect x="40" y="720" width="240" height="20" rx="3" fill="#fadbd8"/><text x="160" y="734" text-anchor="middle" font-size="11" fill="#922b21">Viral exanthem</text>
  <rect x="40" y="745" width="240" height="20" rx="3" fill="#fadbd8"/><text x="160" y="759" text-anchor="middle" font-size="11" fill="#922b21">Early cutaneous T-cell lymphoma</text>
  <rect x="40" y="770" width="240" height="20" rx="3" fill="#fadbd8"/><text x="160" y="784" text-anchor="middle" font-size="11" fill="#922b21">Pityriasis rosea (herald patch)</text>

  <!-- ======================================================================== -->
  <!-- BRANCH 2: RAISED / SOLID (Papule / Plaque / Nodule) — Column 2 (x=330..550, center=440) -->
  <!-- ======================================================================== -->
  <rect x="310" y="330" width="260" height="36" rx="6" fill="#7d3c98"/>
  <text x="440" y="354" text-anchor="middle" font-size="13" font-weight="bold" fill="#fff">RAISED / SOLID</text>

  <line x1="440" y1="366" x2="440" y2="385" stroke="#555" marker-end="url(#arrow)"/>

  <!-- Papulosquamous -->
  <rect x="320" y="390" width="240" height="28" rx="5" fill="#a569bd"/>
  <text x="440" y="409" text-anchor="middle" font-size="12" font-weight="bold" fill="#fff">Papulosquamous（丘疹鱗屑）</text>

  <line x1="440" y1="418" x2="440" y2="433" stroke="#555" marker-end="url(#arrow)"/>

  <rect x="320" y="438" width="240" height="20" rx="3" fill="#f0e6f6"/><text x="440" y="452" text-anchor="middle" font-size="11" fill="#6c3483">Psoriasis — silvery scale, extensor</text>
  <rect x="320" y="463" width="240" height="20" rx="3" fill="#f0e6f6"/><text x="440" y="477" text-anchor="middle" font-size="11" fill="#6c3483">Lichen planus — purple, polygonal, Wickham</text>
  <rect x="320" y="488" width="240" height="20" rx="3" fill="#f0e6f6"/><text x="440" y="502" text-anchor="middle" font-size="11" fill="#6c3483">Pityriasis rosea — Christmas tree pattern</text>
  <rect x="320" y="513" width="240" height="20" rx="3" fill="#f0e6f6"/><text x="440" y="527" text-anchor="middle" font-size="11" fill="#6c3483">Seborrheic dermatitis — greasy scale</text>
  <rect x="320" y="538" width="240" height="20" rx="3" fill="#f0e6f6"/><text x="440" y="552" text-anchor="middle" font-size="11" fill="#6c3483">Secondary syphilis — palms &amp; soles</text>
  <rect x="320" y="563" width="240" height="20" rx="3" fill="#f0e6f6"/><text x="440" y="577" text-anchor="middle" font-size="11" fill="#6c3483">Cutaneous T-cell lymphoma — chronic patches</text>

  <line x1="440" y1="593" x2="440" y2="608" stroke="#555" marker-end="url(#arrow)"/>

  <!-- Nodular -->
  <rect x="320" y="613" width="240" height="28" rx="5" fill="#a569bd"/>
  <text x="440" y="632" text-anchor="middle" font-size="12" font-weight="bold" fill="#fff">Nodular / Dermal（結節）</text>

  <line x1="440" y1="641" x2="440" y2="656" stroke="#555" marker-end="url(#arrow)"/>

  <rect x="320" y="661" width="240" height="20" rx="3" fill="#f0e6f6"/><text x="440" y="675" text-anchor="middle" font-size="11" fill="#6c3483">Erythema nodosum — pretibial, tender</text>
  <rect x="320" y="686" width="240" height="20" rx="3" fill="#f0e6f6"/><text x="440" y="700" text-anchor="middle" font-size="11" fill="#6c3483">Dermatofibroma — dimple sign</text>
  <rect x="320" y="711" width="240" height="20" rx="3" fill="#f0e6f6"/><text x="440" y="725" text-anchor="middle" font-size="11" fill="#6c3483">Neurofibroma</text>
  <rect x="320" y="736" width="240" height="20" rx="3" fill="#f0e6f6"/><text x="440" y="750" text-anchor="middle" font-size="11" fill="#6c3483">Kaposi sarcoma</text>
  <rect x="320" y="761" width="240" height="20" rx="3" fill="#fce4ec"/><text x="440" y="775" text-anchor="middle" font-size="11" fill="#c0392b">⚠ BCC / SCC / Melanoma (see below)</text>

  <!-- ======================================================================== -->
  <!-- BRANCH 3: FLUID-FILLED (Vesicle / Bulla / Pustule) — Column 3 (x=590..810, center=700) -->
  <!-- ======================================================================== -->
  <rect x="570" y="330" width="260" height="36" rx="6" fill="#c0392b"/>
  <text x="700" y="354" text-anchor="middle" font-size="13" font-weight="bold" fill="#fff">FLUID-FILLED LESIONS</text>

  <line x1="700" y1="366" x2="700" y2="385" stroke="#555" marker-end="url(#arrow)"/>

  <!-- Vesicles -->
  <rect x="580" y="390" width="240" height="28" rx="5" fill="#e74c3c"/>
  <text x="700" y="409" text-anchor="middle" font-size="12" font-weight="bold" fill="#fff">Vesicular（水皰）</text>

  <line x1="700" y1="418" x2="700" y2="433" stroke="#555" marker-end="url(#arrow)"/>

  <rect x="580" y="438" width="240" height="20" rx="3" fill="#fce4ec"/><text x="700" y="452" text-anchor="middle" font-size="11" fill="#c0392b">Herpes simplex — grouped, painful</text>
  <rect x="580" y="463" width="240" height="20" rx="3" fill="#fce4ec"/><text x="700" y="477" text-anchor="middle" font-size="11" fill="#c0392b">Herpes zoster — dermatomal, prodrome</text>
  <rect x="580" y="488" width="240" height="20" rx="3" fill="#fce4ec"/><text x="700" y="502" text-anchor="middle" font-size="11" fill="#c0392b">Varicella — dewdrop on rose petal</text>
  <rect x="580" y="513" width="240" height="20" rx="3" fill="#fce4ec"/><text x="700" y="527" text-anchor="middle" font-size="11" fill="#c0392b">Dyshidrotic eczema — hands/feet</text>
  <rect x="580" y="538" width="240" height="20" rx="3" fill="#fce4ec"/><text x="700" y="552" text-anchor="middle" font-size="11" fill="#c0392b">Contact dermatitis — poison ivy</text>

  <line x1="700" y1="568" x2="700" y2="583" stroke="#555" marker-end="url(#arrow)"/>

  <!-- Bullae -->
  <rect x="580" y="588" width="240" height="28" rx="5" fill="#e74c3c"/>
  <text x="700" y="607" text-anchor="middle" font-size="12" font-weight="bold" fill="#fff">Bullous（大皰）</text>

  <line x1="700" y1="616" x2="700" y2="631" stroke="#555" marker-end="url(#arrow)"/>

  <rect x="580" y="636" width="240" height="20" rx="3" fill="#fce4ec"/><text x="700" y="650" text-anchor="middle" font-size="11" fill="#c0392b">Pemphigus vulgaris — flaccid, Nikolsky+</text>
  <rect x="580" y="661" width="240" height="20" rx="3" fill="#fce4ec"/><text x="700" y="675" text-anchor="middle" font-size="11" fill="#c0392b">Bullous pemphigoid — tense, elderly</text>
  <rect x="580" y="686" width="240" height="20" rx="3" fill="#fce4ec"/><text x="700" y="700" text-anchor="middle" font-size="11" fill="#c0392b">SJS / TEN — widespread, mucosal, emergency</text>
  <rect x="580" y="711" width="240" height="20" rx="3" fill="#fce4ec"/><text x="700" y="725" text-anchor="middle" font-size="11" fill="#c0392b">Erythema multiforme — target lesions</text>

  <line x1="700" y1="741" x2="700" y2="756" stroke="#555" marker-end="url(#arrow)"/>

  <!-- Pustules -->
  <rect x="580" y="761" width="240" height="28" rx="5" fill="#e74c3c"/>
  <text x="700" y="780" text-anchor="middle" font-size="12" font-weight="bold" fill="#fff">Pustular（膿皰）</text>

  <line x1="700" y1="789" x2="700" y2="804" stroke="#555" marker-end="url(#arrow)"/>

  <rect x="580" y="809" width="240" height="20" rx="3" fill="#fce4ec"/><text x="700" y="823" text-anchor="middle" font-size="11" fill="#c0392b">Folliculitis — hair follicle origin</text>
  <rect x="580" y="834" width="240" height="20" rx="3" fill="#fce4ec"/><text x="700" y="848" text-anchor="middle" font-size="11" fill="#c0392b">Acne vulgaris — comedones + pustules</text>
  <rect x="580" y="859" width="240" height="20" rx="3" fill="#fce4ec"/><text x="700" y="873" text-anchor="middle" font-size="11" fill="#c0392b">Pustular psoriasis — sterile pustules</text>
  <rect x="580" y="884" width="240" height="20" rx="3" fill="#fce4ec"/><text x="700" y="898" text-anchor="middle" font-size="11" fill="#c0392b">Impetigo — honey-colored crust</text>

  <!-- ======================================================================== -->
  <!-- BRANCH 4: WHEAL (URTICARIA / EDEMATOUS) — Column 4 (x=850..1070, center=960) -->
  <!-- ======================================================================== -->
  <rect x="830" y="330" width="260" height="36" rx="6" fill="#d35400"/>
  <text x="960" y="354" text-anchor="middle" font-size="13" font-weight="bold" fill="#fff">EDEMATOUS / WHEAL</text>

  <line x1="960" y1="366" x2="960" y2="385" stroke="#555" marker-end="url(#arrow)"/>

  <rect x="840" y="390" width="240" height="28" rx="5" fill="#e67e22"/>
  <text x="960" y="409" text-anchor="middle" font-size="12" font-weight="bold" fill="#fff">Urticaria / Wheal（蕁麻疹）</text>

  <line x1="960" y1="418" x2="960" y2="433" stroke="#555" marker-end="url(#arrow)"/>

  <rect x="840" y="438" width="240" height="20" rx="3" fill="#fdebd0"/><text x="960" y="452" text-anchor="middle" font-size="11" fill="#a04000">Acute urticaria (&lt;6 wks) — allergic</text>
  <rect x="840" y="463" width="240" height="20" rx="3" fill="#fdebd0"/><text x="960" y="477" text-anchor="middle" font-size="11" fill="#a04000">Chronic urticaria (&gt;6 wks)</text>
  <rect x="840" y="488" width="240" height="20" rx="3" fill="#fdebd0"/><text x="960" y="502" text-anchor="middle" font-size="11" fill="#a04000">Physical urticaria (cold/heat/pressure)</text>
  <rect x="840" y="513" width="240" height="20" rx="3" fill="#fdebd0"/><text x="960" y="527" text-anchor="middle" font-size="11" fill="#a04000">Dermographism</text>
  <rect x="840" y="538" width="240" height="20" rx="3" fill="#fdebd0"/><text x="960" y="552" text-anchor="middle" font-size="11" fill="#a04000">Angioedema — deep dermis/subcutis</text>

  <line x1="960" y1="568" x2="960" y2="583" stroke="#555" marker-end="url(#arrow)"/>

  <rect x="840" y="588" width="240" height="28" rx="5" fill="#e67e22"/>
  <text x="960" y="607" text-anchor="middle" font-size="12" font-weight="bold" fill="#fff">Eczematous / Dermatitis</text>

  <line x1="960" y1="616" x2="960" y2="631" stroke="#555" marker-end="url(#arrow)"/>

  <rect x="840" y="636" width="240" height="20" rx="3" fill="#fdebd0"/><text x="960" y="650" text-anchor="middle" font-size="11" fill="#a04000">Atopic dermatitis — flexural, itchy</text>
  <rect x="840" y="661" width="240" height="20" rx="3" fill="#fdebd0"/><text x="960" y="675" text-anchor="middle" font-size="11" fill="#a04000">Contact dermatitis — geometric/linear</text>
  <rect x="840" y="686" width="240" height="20" rx="3" fill="#fdebd0"/><text x="960" y="700" text-anchor="middle" font-size="11" fill="#a04000">Nummular eczema — coin-shaped</text>
  <rect x="840" y="711" width="240" height="20" rx="3" fill="#fdebd0"/><text x="960" y="725" text-anchor="middle" font-size="11" fill="#a04000">Stasis dermatitis — lower legs, edema</text>
  <rect x="840" y="736" width="240" height="20" rx="3" fill="#fdebd0"/><text x="960" y="750" text-anchor="middle" font-size="11" fill="#a04000">Lichen simplex chronicus — lichenified</text>

  <!-- ======================================================================== -->
  <!-- BRANCH 5: SECONDARY (Scale / Erosion / Ulcer) — Column 5 (x=1110..1330, center=1220) -->
  <!-- ======================================================================== -->
  <rect x="1090" y="330" width="260" height="36" rx="6" fill="#6c3483"/>
  <text x="1220" y="354" text-anchor="middle" font-size="13" font-weight="bold" fill="#fff">SECONDARY LESIONS</text>

  <line x1="1220" y1="366" x2="1220" y2="385" stroke="#555" marker-end="url(#arrow)"/>

  <!-- Scale -->
  <rect x="1100" y="390" width="240" height="28" rx="5" fill="#8e44ad"/>
  <text x="1220" y="409" text-anchor="middle" font-size="12" font-weight="bold" fill="#fff">Scale / Crust（鱗屑／痂）</text>

  <line x1="1220" y1="418" x2="1220" y2="433" stroke="#555" marker-end="url(#arrow)"/>

  <rect x="1100" y="438" width="240" height="20" rx="3" fill="#e8daef"/><text x="1220" y="452" text-anchor="middle" font-size="11" fill="#6c3483">Psoriasis — silvery scale</text>
  <rect x="1100" y="463" width="240" height="20" rx="3" fill="#e8daef"/><text x="1220" y="477" text-anchor="middle" font-size="11" fill="#6c3483">Seborrheic dermatitis — greasy yellow</text>
  <rect x="1100" y="488" width="240" height="20" rx="3" fill="#e8daef"/><text x="1220" y="502" text-anchor="middle" font-size="11" fill="#6c3483">Ichthyosis vulgaris — fish-like scale</text>
  <rect x="1100" y="513" width="240" height="20" rx="3" fill="#e8daef"/><text x="1220" y="527" text-anchor="middle" font-size="11" fill="#6c3483">Actinic keratosis — rough, premalignant</text>

  <line x1="1220" y1="543" x2="1220" y2="558" stroke="#555" marker-end="url(#arrow)"/>

  <!-- Erosion / Ulcer -->
  <rect x="1100" y="563" width="240" height="28" rx="5" fill="#8e44ad"/>
  <text x="1220" y="582" text-anchor="middle" font-size="12" font-weight="bold" fill="#fff">Erosion / Ulcer（糜爛／潰瘍）</text>

  <line x1="1220" y1="591" x2="1220" y2="606" stroke="#555" marker-end="url(#arrow)"/>

  <rect x="1100" y="611" width="240" height="20" rx="3" fill="#e8daef"/><text x="1220" y="625" text-anchor="middle" font-size="11" fill="#6c3483">Pressure ulcer — bony prominence</text>
  <rect x="1100" y="636" width="240" height="20" rx="3" fill="#e8daef"/><text x="1220" y="650" text-anchor="middle" font-size="11" fill="#6c3483">Venous ulcer — medial malleolus</text>
  <rect x="1100" y="661" width="240" height="20" rx="3" fill="#e8daef"/><text x="1220" y="675" text-anchor="middle" font-size="11" fill="#6c3483">Arterial ulcer — toes, lateral leg</text>
  <rect x="1100" y="686" width="240" height="20" rx="3" fill="#e8daef"/><text x="1220" y="700" text-anchor="middle" font-size="11" fill="#6c3483">Diabetic foot ulcer — pressure points</text>
  <rect x="1100" y="711" width="240" height="20" rx="3" fill="#fce4ec"/><text x="1220" y="725" text-anchor="middle" font-size="11" fill="#c0392b">⚠ SCC / BCC — non-healing ulcer</text>
  <rect x="1100" y="736" width="240" height="20" rx="3" fill="#e8daef"/><text x="1220" y="750" text-anchor="middle" font-size="11" fill="#6c3483">Pyoderma gangrenosum — painful, undermined</text>

  <!-- ======================================================================== -->
  <!-- BOTTOM SECTION: CROSS-CUTTING CATEGORIES & Distribution Patterns -->
  <!-- ======================================================================== -->

  <!-- Full-width separator -->
  <line x1="50" y1="830" x2="1350" y2="830" stroke="#ccc" stroke-width="1" stroke-dasharray="4,4"/>

  <!-- ===== Step 2: Distribution ===== -->
  <rect x="350" y="850" width="700" height="44" rx="8" fill="#1a5276" filter="url(#shadow)"/>
  <text x="700" y="872" text-anchor="middle" font-size="16" font-weight="bold" fill="#fff">Step 2: Assess Distribution &amp; Configuration（評估分布與排列）</text>
  <text x="700" y="888" text-anchor="middle" font-size="12" fill="#aed6f1">病灶位置與排列方式是縮小鑑別診斷範圍的重要線索</text>

  <!-- Distribution box -->
  <rect x="50" y="915" width="1300" height="175" rx="8" fill="#fff" stroke="#2980b9" stroke-width="1.5" filter="url(#shadow)"/>
  <text x="700" y="938" text-anchor="middle" font-size="14" font-weight="bold" fill="#1a5276">Distribution &amp; Configuration Patterns（分布與排列型態）</text>

  <!-- Row 1: distribution -->
  <rect x="70" y="955" width="180" height="55" rx="5" fill="#d4e6f1"/><text x="160" y="977" text-anchor="middle" font-size="12" font-weight="bold" fill="#1a5276">Flexural</text><text x="160" y="997" text-anchor="middle" font-size="10" fill="#34495e">Atopic dermatitis</text>
  <rect x="265" y="955" width="180" height="55" rx="5" fill="#d4e6f1"/><text x="355" y="977" text-anchor="middle" font-size="12" font-weight="bold" fill="#1a5276">Extensor</text><text x="355" y="997" text-anchor="middle" font-size="10" fill="#34495e">Psoriasis</text>
  <rect x="460" y="955" width="180" height="55" rx="5" fill="#d4e6f1"/><text x="550" y="977" text-anchor="middle" font-size="12" font-weight="bold" fill="#1a5276">Seborrheic</text><text x="550" y="997" text-anchor="middle" font-size="10" fill="#34495e">Seborrheic dermatitis</text>
  <rect x="655" y="955" width="180" height="55" rx="5" fill="#d4e6f1"/><text x="745" y="977" text-anchor="middle" font-size="12" font-weight="bold" fill="#1a5276">Photo-distributed</text><text x="745" y="997" text-anchor="middle" font-size="10" fill="#34495e">Lupus, drug eruption</text>
  <rect x="850" y="955" width="180" height="55" rx="5" fill="#d4e6f1"/><text x="940" y="977" text-anchor="middle" font-size="12" font-weight="bold" fill="#1a5276">Dermatomal</text><text x="940" y="997" text-anchor="middle" font-size="10" fill="#34495e">Herpes zoster</text>
  <rect x="1045" y="955" width="180" height="55" rx="5" fill="#d4e6f1"/><text x="1135" y="977" text-anchor="middle" font-size="12" font-weight="bold" fill="#1a5276">Acral (hands/feet)</text><text x="1135" y="997" text-anchor="middle" font-size="10" fill="#34495e">Dyshidrotic eczema</text>
  <!-- Row 2 -->
  <rect x="70" y="1020" width="180" height="55" rx="5" fill="#d4e6f1"/><text x="160" y="1042" text-anchor="middle" font-size="12" font-weight="bold" fill="#1a5276">Annular (ring)</text><text x="160" y="1062" text-anchor="middle" font-size="10" fill="#34495e">Tinea, granuloma annulare</text>
  <rect x="265" y="1020" width="180" height="55" rx="5" fill="#d4e6f1"/><text x="355" y="1042" text-anchor="middle" font-size="12" font-weight="bold" fill="#1a5276">Target-shaped</text><text x="355" y="1062" text-anchor="middle" font-size="10" fill="#34495e">Erythema multiforme</text>
  <rect x="460" y="1020" width="180" height="55" rx="5" fill="#d4e6f1"/><text x="550" y="1042" text-anchor="middle" font-size="12" font-weight="bold" fill="#1a5276">Intertriginous</text><text x="550" y="1062" text-anchor="middle" font-size="10" fill="#34495e">Candidiasis, inverse psoriasis</text>
  <rect x="655" y="1020" width="180" height="55" rx="5" fill="#d4e6f1"/><text x="745" y="1042" text-anchor="middle" font-size="12" font-weight="bold" fill="#1a5276">Generalized</text><text x="745" y="1062" text-anchor="middle" font-size="10" fill="#34495e">Drug reaction, erythroderma</text>
  <rect x="850" y="1020" width="180" height="55" rx="5" fill="#d4e6f1"/><text x="940" y="1042" text-anchor="middle" font-size="12" font-weight="bold" fill="#1a5276">Koebner (trauma)</text><text x="940" y="1062" text-anchor="middle" font-size="10" fill="#34495e">Psoriasis, lichen planus</text>
  <rect x="1045" y="1020" width="180" height="55" rx="5" fill="#d4e6f1"/><text x="1135" y="1042" text-anchor="middle" font-size="12" font-weight="bold" fill="#1a5276">Linear</text><text x="1135" y="1062" text-anchor="middle" font-size="10" fill="#34495e">Contact dermatitis</text>

  <!-- ===== Step 3: Itch vs Pain ===== -->
  <line x1="700" y1="1100" x2="700" y2="1125" stroke="#555" stroke-width="1.5" marker-end="url(#arrow)"/>

  <rect x="350" y="1130" width="700" height="44" rx="8" fill="#1a5276" filter="url(#shadow)"/>
  <text x="700" y="1152" text-anchor="middle" font-size="16" font-weight="bold" fill="#fff">Step 3: Symptom Quality（症狀特質）— Itch vs Pain vs Asymptomatic</text>
  <text x="700" y="1168" text-anchor="middle" font-size="12" fill="#aed6f1">癢感多見於發炎性疾病，疼痛多見於感染或缺血性疾病，無症狀則需考慮腫瘤</text>

  <line x1="700" y1="1174" x2="700" y2="1199" stroke="#555" stroke-width="1.5" marker-end="url(#arrow)"/>

  <!-- 3-box symptom quality -->
  <rect x="100" y="1205" width="350" height="70" rx="8" fill="#e8f8f5" stroke="#1abc9c" stroke-width="1.5" filter="url(#shadow)"/>
  <text x="275" y="1230" text-anchor="middle" font-size="14" font-weight="bold" fill="#0e6251">Pruritus（搔癢）</text>
  <text x="275" y="1250" text-anchor="middle" font-size="11" fill="#34495e">Atopic dermatitis, Urticaria, Scabies</text>
  <text x="275" y="1265" text-anchor="middle" font-size="11" fill="#34495e">Lichen planus, Psoriasis, Drug eruption</text>

  <rect x="525" y="1205" width="350" height="70" rx="8" fill="#fdedec" stroke="#e74c3c" stroke-width="1.5" filter="url(#shadow)"/>
  <text x="700" y="1230" text-anchor="middle" font-size="14" font-weight="bold" fill="#922b21">Pain / Burning（疼痛／灼熱）</text>
  <text x="700" y="1250" text-anchor="middle" font-size="11" fill="#34495e">Herpes zoster, Cellulitis, Ulcer</text>
  <text x="700" y="1265" text-anchor="middle" font-size="11" fill="#34495e">Erythema nodosum, Vasculitis</text>

  <rect x="950" y="1205" width="350" height="70" rx="8" fill="#f4ecf7" stroke="#8e44ad" stroke-width="1.5" filter="url(#shadow)"/>
  <text x="1125" y="1230" text-anchor="middle" font-size="14" font-weight="bold" fill="#6c3483">Asymptomatic（無症狀）</text>
  <text x="1125" y="1250" text-anchor="middle" font-size="11" fill="#34495e">BCC, SCC, Melanoma, Syphilis</text>
  <text x="1125" y="1265" text-anchor="middle" font-size="11" fill="#34495e">Molluscum, Warts, Xanthelasma</text>

  <!-- ===== Step 4: Time Course ===== -->
  <line x1="700" y1="1285" x2="700" y2="1310" stroke="#555" stroke-width="1.5" marker-end="url(#arrow)"/>

  <rect x="350" y="1315" width="700" height="44" rx="8" fill="#1a5276" filter="url(#shadow)"/>
  <text x="700" y="1337" text-anchor="middle" font-size="16" font-weight="bold" fill="#fff">Step 4: Time Course（時間病程）— Acute vs Chronic</text>
  <text x="700" y="1353" text-anchor="middle" font-size="12" fill="#aed6f1">急性發作（小時∼天）vs 慢性持續（週∼年），大幅縮小範圍</text>

  <line x1="700" y1="1359" x2="700" y2="1384" stroke="#555" stroke-width="1.5" marker-end="url(#arrow)"/>

  <rect x="100" y="1390" width="500" height="80" rx="8" fill="#fef9e7" stroke="#f1c40f" stroke-width="1.5" filter="url(#shadow)"/>
  <text x="350" y="1415" text-anchor="middle" font-size="14" font-weight="bold" fill="#7d6608">ACUTE（急性：hours–days）</text>
  <text x="350" y="1438" text-anchor="middle" font-size="11" fill="#34495e">Urticaria | Contact dermatitis | Drug eruption | Viral exanthem | </text>
  <text x="350" y="1455" text-anchor="middle" font-size="11" fill="#34495e">Herpes zoster | Cellulitis | Impetigo | SJS/TEN | Erythema multiforme</text>

  <rect x="700" y="1390" width="500" height="80" rx="8" fill="#eaf2f8" stroke="#3498db" stroke-width="1.5" filter="url(#shadow)"/>
  <text x="950" y="1415" text-anchor="middle" font-size="14" font-weight="bold" fill="#1a5276">CHRONIC（慢性：weeks–years）</text>
  <text x="950" y="1438" text-anchor="middle" font-size="11" fill="#34495e">Psoriasis | Atopic dermatitis | Acne | CTCL (lymphoma) |</text>
  <text x="950" y="1455" text-anchor="middle" font-size="11" fill="#34495e">Lupus erythematosus | Chronic urticaria | Lichen planus</text>

  <!-- ===== Step 5: Diagnostic Tools ===== -->
  <line x1="700" y1="1480" x2="700" y2="1505" stroke="#555" stroke-width="1.5" marker-end="url(#arrow)"/>

  <rect x="350" y="1510" width="700" height="44" rx="8" fill="#1a5276" filter="url(#shadow)"/>
  <text x="700" y="1532" text-anchor="middle" font-size="16" font-weight="bold" fill="#fff">Step 5: Confirm with Diagnostic Tools（輔助工具確認）</text>

  <line x1="700" y1="1554" x2="700" y2="1579" stroke="#555" stroke-width="1.5" marker-end="url(#arrow)"/>

  <!-- 6 tools in 3 rows -->
  <rect x="70" y="1585" width="380" height="42" rx="6" fill="#fff" stroke="#27ae60" stroke-width="1.2" filter="url(#shadow)"/>
  <text x="260" y="1602" text-anchor="middle" font-size="13" font-weight="bold" fill="#1e8449">🔬 Dermoscopy（皮膚鏡）</text>
  <text x="260" y="1618" text-anchor="middle" font-size="11" fill="#555">Benign vs malignant pigmented lesions</text>

  <rect x="510" y="1585" width="380" height="42" rx="6" fill="#fff" stroke="#27ae60" stroke-width="1.2" filter="url(#shadow)"/>
  <text x="700" y="1602" text-anchor="middle" font-size="13" font-weight="bold" fill="#1e8449">🧫 KOH Prep（氫氧化鉀皰膜）</text>
  <text x="700" y="1618" text-anchor="middle" font-size="11" fill="#555">Fungal hyphae, pseudohyphae, spores</text>

  <rect x="950" y="1585" width="380" height="42" rx="6" fill="#fff" stroke="#27ae60" stroke-width="1.2" filter="url(#shadow)"/>
  <text x="1140" y="1602" text-anchor="middle" font-size="13" font-weight="bold" fill="#1e8449">💡 Wood's Lamp（伍氏燈）</text>
  <text x="1140" y="1618" text-anchor="middle" font-size="11" fill="#555">Erythrasma (coral red), Tinea (yellow-green)</text>

  <rect x="70" y="1637" width="380" height="42" rx="6" fill="#fff" stroke="#27ae60" stroke-width="1.2" filter="url(#shadow)"/>
  <text x="260" y="1654" text-anchor="middle" font-size="13" font-weight="bold" fill="#1e8449">📋 Skin Biopsy（皮膚切片）</text>
  <text x="260" y="1670" text-anchor="middle" font-size="11" fill="#555">Gold standard — H&amp;E, special stains, IF</text>

  <rect x="510" y="1637" width="380" height="42" rx="6" fill="#fff" stroke="#27ae60" stroke-width="1.2" filter="url(#shadow)"/>
  <text x="700" y="1654" text-anchor="middle" font-size="13" font-weight="bold" fill="#1e8449">🩹 Patch Test（貼膚測試）</text>
  <text x="700" y="1670" text-anchor="middle" font-size="11" fill="#555">Allergic contact dermatitis diagnosis</text>

  <rect x="950" y="1637" width="380" height="42" rx="6" fill="#fff" stroke="#27ae60" stroke-width="1.2" filter="url(#shadow)"/>
  <text x="1140" y="1654" text-anchor="middle" font-size="13" font-weight="bold" fill="#1e8449">🩸 Labs（抽血檢查）</text>
  <text x="1140" y="1670" text-anchor="middle" font-size="11" fill="#555">CBC, CRP, ANA, Tzanck smear</text>

  <!-- ======================================================================== -->
  <!-- BOTTOM SUMMARY / ALGORITHM -->
  <!-- ======================================================================== -->
  <line x1="700" y1="1695" x2="700" y2="1720" stroke="#555" stroke-width="1.5" marker-end="url(#arrow)"/>

  <rect x="200" y="1725" width="1000" height="44" rx="22" fill="url(#gStart)" filter="url(#shadow)"/>
  <text x="700" y="1753" text-anchor="middle" font-size="16" font-weight="bold" fill="#fff">Quick Algorithm — 快速鑑別流程</text>

  <line x1="700" y1="1769" x2="700" y2="1794" stroke="#555" stroke-width="1.5" marker-end="url(#arrow)"/>

  <rect x="200" y="1800" width="1000" height="200" rx="8" fill="#f8f9fa" stroke="#2980b9" stroke-width="1" filter="url(#shadow)"/>
  <text x="700" y="1825" text-anchor="middle" font-size="13" font-weight="bold" fill="#1a5276">Algorithm Flow（流程）</text>

  <text x="250" y="1855" font-size="12" fill="#2c3e50">1️⃣ Identify primary lesion morphology →</text>
  <text x="250" y="1880" font-size="12" fill="#2c3e50">2️⃣ Assess distribution &amp; configuration →</text>
  <text x="250" y="1905" font-size="12" fill="#2c3e50">3️⃣ Evaluate symptoms (itch / pain / asymptomatic) →</text>
  <text x="250" y="1930" font-size="12" fill="#2c3e50">4️⃣ Determine time course (acute vs chronic) →</text>
  <text x="250" y="1955" font-size="12" fill="#2c3e50">5️⃣ Use diagnostic tools (dermoscopy, KOH, biopsy) →</text>
  <text x="250" y="1980" font-size="12" fill="#2c3e50">6️⃣ Narrow differential by associated systemic signs (fever, arthralgia, mucosal)</text>

  <!-- ===== Summary Table: Lesion → Group → Sample Diseases ===== -->
  <line x1="700" y1="2010" x2="700" y2="2035" stroke="#555" stroke-width="1.5" marker-end="url(#arrow)"/>

  <rect x="50" y="2040" width="1300" height="140" rx="8" fill="#fff" stroke="#2c3e50" stroke-width="1.5" filter="url(#shadow)"/>
  <text x="700" y="2065" text-anchor="middle" font-size="14" font-weight="bold" fill="#1a1a2e">Quick Reference: Lesion → Category → Sample Diseases（病灶 → 分類 → 常見疾病）</text>

  <text x="80" y="2095" font-size="11" font-weight="bold" fill="#2c3e50">Flat →</text>
  <text x="130" y="2095" font-size="11" fill="#555">Pigmentary (vitiligo, melasma)</text>
  <text x="350" y="2095" font-size="11" fill="#555">|</text>
  <text x="370" y="2095" font-size="11" font-weight="bold" fill="#7d3c98">Raised →</text>
  <text x="430" y="2095" font-size="11" fill="#555">Inflammatory (psoriasis, eczema) / Tumor (BCC, SCC)</text>
  <text x="780" y="2095" font-size="11" fill="#555">|</text>
  <text x="800" y="2095" font-size="11" font-weight="bold" fill="#c0392b">Fluid →</text>
  <text x="850" y="2095" font-size="11" fill="#555">Infectious (HSV, VZV) / Autoimmune (pemphigus)</text>
  <text x="1170" y="2095" font-size="11" fill="#555">|</text>
  <text x="1190" y="2095" font-size="11" font-weight="bold" fill="#d35400">Wheal →</text>
  <text x="1250" y="2095" font-size="11" fill="#555">Allergic (urticaria)</text>

  <text x="80" y="2120" font-size="11" font-weight="bold" fill="#6c3483">Secondary →</text>
  <text x="165" y="2120" font-size="11" fill="#555">Vascular (ulcer) / Premalignant (actinic keratosis)</text>
  <text x="520" y="2120" font-size="11" fill="#555">|</text>
  <text x="540" y="2120" font-size="11" font-weight="bold" fill="#1e8449">Infection →</text>
  <text x="610" y="2120" font-size="11" fill="#555">Any lesion type + signs of infection (cellulitis, impetigo, tinea)</text>
  <text x="1060" y="2120" font-size="11" fill="#555">|</text>
  <text x="1080" y="2120" font-size="11" font-weight="bold" fill="#922b21">Vascular →</text>
  <text x="1160" y="2120" font-size="11" fill="#555">Palpable purpura (vasculitis)</text>

  <text x="700" y="2155" text-anchor="middle" font-size="10" fill="#999">This algorithm is a clinical decision support tool — always correlate with patient history, exam, and confirmatory testing.</text>
  <text x="700" y="2175" text-anchor="middle" font-size="10" fill="#999">整理自：Fitzpatrick's Dermatology, Andrews' Diseases of the Skin,  oraz 實證皮膚科學臨床指引</text>
</svg>
